<?xml version="1.0" encoding="UTF-8"?>
<svg xmlns="http://www.w3.org/2000/svg" version="1.1" viewBox="0 0 814.78 239.22">
  <!-- Generator: Adobe Illustrator 29.6.0, SVG Export Plug-In . SVG Version: 2.1.1 Build 207)  -->
  <defs>
    <style>
      .st0 {
        fill: #141413;
      }

      .st1 {
        display: none;
      }
    </style>
  </defs>
  <g id="Layer_1" class="st1">
    <g>
      <path class="st0" d="M31.37,192.11V57.83c0-8.21,6.65-14.86,14.86-14.86h.58c8.21,0,14.86,6.65,14.86,14.86v134.28c0,8.21-6.65,14.86-14.86,14.86h-.58c-8.21,0-14.86-6.65-14.86-14.86Z"/>
      <path class="st0" d="M194.34,200.11l-39.58-62.78c-7.85-12.46-27.11-6.89-27.11,7.83v47.12c0,8.11-6.58,14.69-14.69,14.69h0c-8.11,0-14.69-6.58-14.69-14.69V57.66c0-8.11,6.58-14.69,14.69-14.69h8.9c5.04,0,9.73,2.58,12.42,6.85l38.66,61.24c7.86,12.45,27.11,6.88,27.11-7.84v-45.56c0-8.11,6.58-14.69,14.69-14.69h0c8.11,0,14.69,6.58,14.69,14.69v134.62c0,8.11-6.58,14.69-14.69,14.69h-7.97c-5.04,0-9.73-2.59-12.42-6.85Z"/>
      <path class="st0" d="M339.47,92.95v100.14c0,7.66-6.21,13.88-13.88,13.88h-2.08c-7.66,0-13.88-6.21-13.88-13.88v-100c0-12.35-10.01-22.36-22.36-22.36h-12.34c-7.66,0-13.88-6.21-13.88-13.88h0c0-7.66,6.21-13.88,13.88-13.88h99.23c7.66,0,13.88,6.21,13.88,13.88h0c0,7.66-6.21,13.88-13.88,13.88h-12.48c-12.27,0-22.22,9.95-22.22,22.22Z"/>
      <path class="st0" d="M548.28,144.05c0,9.72-1.35,18.62-4.05,26.71-2.7,8.1-6.75,15.04-12.14,20.82-5.4,5.78-12.11,10.29-20.13,13.53-8.02,3.24-17.35,4.86-27.99,4.86s-19.97-1.62-27.99-4.86c-8.02-3.24-14.73-7.75-20.12-13.53-5.4-5.78-9.45-12.72-12.14-20.82-2.7-8.1-4.05-17-4.05-26.71V57.89c0-8.24,6.68-14.92,14.92-14.92h0c8.24,0,14.92,6.68,14.92,14.92v85.7c0,11.72,2.78,21.2,8.33,28.45,5.55,7.25,14.26,10.87,26.14,10.87s20.59-3.62,26.14-10.87c5.55-7.25,8.33-16.73,8.33-28.45V57.89c0-8.24,6.68-14.92,14.92-14.92h0c8.24,0,14.92,6.68,14.92,14.92v86.16Z"/>
      <path class="st0" d="M588.12,191.81V58.12c0-8.37,6.78-15.15,15.15-15.15h0c8.37,0,15.15,6.78,15.15,15.15v133.69c0,8.37-6.78,15.15-15.15,15.15h0c-8.37,0-15.15-6.78-15.15-15.15Z"/>
      <path class="st0" d="M748.06,198.16l-19.54-44.39c-2.36-5.35-7.65-8.8-13.49-8.8h-42.03c-8.14,0-14.74-6.6-14.74-14.74V57.71c0-8.14,6.6-14.74,14.74-14.74h54.42c9.72,0,18.16,1.43,25.33,4.28,7.17,2.85,13.11,6.63,17.81,11.33,4.7,4.7,8.17,10.1,10.41,16.19,2.23,6.09,3.35,12.46,3.35,19.08,0,11.1-2.74,20.7-8.21,28.8-3.13,4.63-6.85,8.48-11.16,11.58-5.72,4.1-8.13,11.4-5.25,17.82l15.31,34.15c4.37,9.75-2.76,20.77-13.45,20.77h0c-5.84,0-11.14-3.45-13.49-8.8ZM754.48,93.86c0-3.24-.62-6.36-1.85-9.37-1.24-3.01-3.01-5.67-5.32-7.98-2.31-2.31-5.17-4.12-8.56-5.44-3.39-1.31-7.17-1.96-11.34-1.96h-24.58c-8.14,0-14.74,6.6-14.74,14.74v19.55c0,8.14,6.6,14.74,14.74,14.74h25.04c8.48,0,15.03-2.08,19.66-6.24,4.62-4.16,6.94-10.18,6.94-18.04Z"/>
    </g>
  </g>
  <g id="Layer_2">
    <g>
      <path class="st0" d="M46.81,44.97c7.09,0,12.86,5.77,12.86,12.86v134.28c0,7.09-5.77,12.86-12.86,12.86h-.58c-7.09,0-12.86-5.77-12.86-12.86V57.83c0-7.09,5.77-12.86,12.86-12.86h.58M46.81,42.97h-.58c-8.21,0-14.86,6.65-14.86,14.86v134.28c0,8.21,6.65,14.86,14.86,14.86h.58c8.21,0,14.86-6.65,14.86-14.86V57.83c0-8.21-6.65-14.86-14.86-14.86h0Z"/>
      <path class="st0" d="M214.74,44.97c7,0,12.69,5.69,12.69,12.69v134.62c0,7-5.69,12.69-12.69,12.69h-7.97c-4.38,0-8.4-2.21-10.73-5.92l-39.58-62.78c-3.13-4.97-8.22-7.81-13.95-7.81-8.28,0-16.85,6.25-16.85,16.71v47.12c0,7-5.69,12.69-12.69,12.69s-12.69-5.69-12.69-12.69V57.66c0-7,5.69-12.69,12.69-12.69h8.9c4.38,0,8.39,2.21,10.73,5.91l38.66,61.24c3.13,4.96,8.22,7.81,13.95,7.81,8.28,0,16.85-6.25,16.85-16.71v-45.56c0-7,5.69-12.69,12.69-12.69M214.74,42.97h0c-8.11,0-14.69,6.58-14.69,14.69v45.56c0,9.11-7.37,14.71-14.85,14.71-4.61,0-9.26-2.13-12.26-6.87l-38.66-61.24c-2.69-4.26-7.38-6.85-12.42-6.85h-8.9c-8.11,0-14.69,6.58-14.69,14.69v134.62c0,8.11,6.58,14.69,14.69,14.69h0c8.11,0,14.69-6.58,14.69-14.69v-47.12c0-9.11,7.37-14.71,14.85-14.71,4.61,0,9.27,2.13,12.26,6.88l39.58,62.78c2.69,4.27,7.38,6.85,12.42,6.85h7.97c8.11,0,14.69-6.58,14.69-14.69V57.66c0-8.11-6.58-14.69-14.69-14.69h0Z"/>
      <path class="st0" d="M374.17,44.97c6.55,0,11.88,5.33,11.88,11.88s-5.33,11.88-11.88,11.88h-12.48c-13.35,0-24.22,10.86-24.22,24.22v100.14c0,6.55-5.33,11.88-11.88,11.88h-2.08c-6.55,0-11.88-5.33-11.88-11.88v-100c0-13.43-10.93-24.36-24.36-24.36h-12.34c-6.55,0-11.88-5.33-11.88-11.88s5.33-11.88,11.88-11.88h99.23M374.17,42.97h-99.23c-7.66,0-13.88,6.21-13.88,13.88h0c0,7.66,6.21,13.88,13.88,13.88h12.34c12.35,0,22.36,10.01,22.36,22.36v100c0,7.66,6.21,13.88,13.88,13.88h2.08c7.66,0,13.88-6.21,13.88-13.88v-100.14c0-12.27,9.95-22.22,22.22-22.22h12.48c7.66,0,13.88-6.21,13.88-13.88h0c0-7.66-6.21-13.88-13.88-13.88h0Z"/>
      <path class="st0" d="M533.36,44.97c7.12,0,12.92,5.8,12.92,12.92v86.16c0,9.44-1.33,18.22-3.95,26.08-2.59,7.78-6.53,14.54-11.71,20.09-5.17,5.54-11.7,9.93-19.41,13.04-7.74,3.13-16.9,4.71-27.24,4.71s-19.5-1.59-27.24-4.71c-7.71-3.11-14.24-7.5-19.41-13.04-5.18-5.54-9.12-12.3-11.71-20.08-2.62-7.85-3.94-16.63-3.94-26.08V57.89c0-7.12,5.8-12.92,12.92-12.92s12.92,5.8,12.92,12.92v85.7c0,12.11,2.94,22.1,8.74,29.67,5.92,7.73,15.25,11.66,27.72,11.66s21.8-3.92,27.73-11.66c5.8-7.57,8.74-17.55,8.74-29.67V57.89c0-7.12,5.8-12.92,12.92-12.92M533.36,42.97c-8.24,0-14.92,6.68-14.92,14.92v85.7c0,11.72-2.78,21.2-8.33,28.45-5.55,7.25-14.27,10.87-26.14,10.87s-20.58-3.62-26.14-10.87c-5.55-7.25-8.33-16.73-8.33-28.45V57.89c0-8.24-6.68-14.92-14.92-14.92h0c-8.24,0-14.92,6.68-14.92,14.92v86.16c0,9.72,1.35,18.62,4.05,26.71,2.7,8.1,6.74,15.04,12.14,20.82,5.4,5.78,12.1,10.29,20.12,13.53,8.02,3.24,17.35,4.86,27.99,4.86s19.97-1.62,27.99-4.86c8.02-3.24,14.73-7.75,20.13-13.53,5.39-5.78,9.44-12.72,12.14-20.82,2.7-8.1,4.05-17,4.05-26.71V57.89c0-8.24-6.68-14.92-14.92-14.92h0Z"/>
      <path class="st0" d="M603.27,44.97c7.25,0,13.15,5.9,13.15,13.15v133.69c0,7.25-5.9,13.15-13.15,13.15s-13.15-5.9-13.15-13.15V58.12c0-7.25,5.9-13.15,13.15-13.15M603.27,42.97c-8.37,0-15.15,6.78-15.15,15.15v133.69c0,8.37,6.78,15.15,15.15,15.15s15.15-6.78,15.15-15.15V58.12c0-8.37-6.78-15.15-15.15-15.15h0Z"/>
      <path class="st0" d="M727.41,44.97c9.41,0,17.68,1.39,24.59,4.14,6.88,2.74,12.65,6.4,17.14,10.89,4.48,4.48,7.82,9.68,9.95,15.46,2.14,5.85,3.23,12.04,3.23,18.4,0,10.64-2.65,19.95-7.87,27.68-2.98,4.41-6.57,8.13-10.67,11.07-6.68,4.79-9.11,13.12-5.91,20.26l15.31,34.15c1.77,3.96,1.43,8.5-.93,12.14-2.36,3.64-6.36,5.82-10.7,5.82-5.05,0-9.63-2.99-11.66-7.61l-19.54-44.39c-2.67-6.07-8.69-10-15.32-10h-42.03c-7.03,0-12.74-5.72-12.74-12.74V57.71c0-7.03,5.72-12.74,12.74-12.74h54.42M702.83,120.14h25.04c8.95,0,16.02-2.27,21-6.76,5.04-4.54,7.6-11.11,7.6-19.53,0-3.48-.67-6.89-2-10.13-1.33-3.24-3.27-6.15-5.76-8.63-2.49-2.49-5.6-4.47-9.25-5.89-3.62-1.39-7.67-2.1-12.05-2.1h-24.58c-9.23,0-16.74,7.51-16.74,16.74v19.55c0,9.23,7.51,16.74,16.74,16.74M727.41,42.97h-54.42c-8.14,0-14.74,6.6-14.74,14.74v72.52c0,8.14,6.6,14.74,14.74,14.74h42.03c5.84,0,11.14,3.45,13.49,8.8l19.54,44.39c2.36,5.35,7.65,8.8,13.49,8.8,10.69,0,17.82-11.02,13.45-20.77l-15.31-34.15c-2.88-6.42-.47-13.72,5.25-17.82,4.31-3.09,8.03-6.95,11.16-11.58,5.47-8.1,8.21-17.69,8.21-28.8,0-6.63-1.12-12.99-3.35-19.08-2.24-6.09-5.71-11.49-10.41-16.19-4.7-4.7-10.64-8.48-17.81-11.33-7.17-2.85-15.61-4.28-25.33-4.28h0ZM702.83,118.14c-8.14,0-14.74-6.6-14.74-14.74v-19.55c0-8.14,6.6-14.74,14.74-14.74h24.58c4.17,0,7.94.66,11.34,1.96,3.39,1.31,6.24,3.12,8.56,5.44s4.09,4.97,5.32,7.98c1.23,3.01,1.85,6.13,1.85,9.37,0,7.86-2.31,13.88-6.94,18.04-4.63,4.16-11.18,6.24-19.66,6.24h-25.04Z"/>
    </g>
  </g>
</svg>